<svg xmlns="http://www.w3.org/2000/svg" width="14" height="14" viewBox="0 0 14 14">
  <path id="Caminho_1547" data-name="Caminho 1547" d="M455.4,457.808c-.049-.046-.134-.121-.215-.2l-4.161-4.157c-.283-.283-.284-.283-.576.009l-4.161,4.157c-.08.08-.167.154-.228.21l-2.327-2.327c.057-.062.131-.149.212-.229,1.4-1.4,2.8-2.8,4.205-4.195.2-.194.207-.3,0-.5-1.409-1.391-2.806-2.794-4.206-4.195-.08-.08-.156-.166-.211-.226l2.33-2.326c.05.045.136.117.216.2q2.112,2.109,4.218,4.223c.19.192.3.184.482,0q2.09-2.11,4.2-4.2c.081-.081.166-.157.219-.208l2.33,2.328c-.034.038-.1.125-.183.2q-2.11,2.111-4.225,4.216c-.186.184-.2.29,0,.481,1.408,1.391,2.805,2.795,4.206,4.195.081.081.158.165.21.219Z" transform="translate(-443.733 -443.825)" fill="#fff"/>
</svg>
